<svg width="115" height="64" viewBox="0 0 115 64" fill="none" xmlns="http://www.w3.org/2000/svg">
<path d="M18.2133 19.4782C18.2133 20.7189 17.9285 21.8578 17.359 22.8951C16.7895 23.912 15.915 24.7357 14.7353 25.3662C13.5557 25.9967 12.0913 26.312 10.3422 26.312H7.10835V34H1.89149V12.5834H10.3422C12.0506 12.5834 13.4947 12.8783 14.6743 13.4681C15.854 14.058 16.7387 14.8715 17.3285 15.9088C17.9183 16.9461 18.2133 18.1359 18.2133 19.4782ZM9.94559 22.1629C10.9422 22.1629 11.6845 21.929 12.1727 21.4612C12.6608 20.9934 12.9049 20.3324 12.9049 19.4782C12.9049 18.624 12.6608 17.963 12.1727 17.4952C11.6845 17.0274 10.9422 16.7935 9.94559 16.7935H7.10835V22.1629H9.94559ZM19.8919 25.4578C19.8919 23.7086 20.2173 22.1731 20.8682 20.8511C21.5393 19.5291 22.4444 18.5121 23.5834 17.8003C24.7223 17.0884 25.9935 16.7325 27.3969 16.7325C28.5968 16.7325 29.6443 16.9766 30.5392 17.4647C31.4544 17.9528 32.1561 18.5935 32.6442 19.3867V16.9766H37.8611V34H32.6442V31.5899C32.1358 32.3831 31.4239 33.0237 30.5087 33.5119C29.6138 34 28.5663 34.2441 27.3664 34.2441C25.9833 34.2441 24.7223 33.8881 23.5834 33.1763C22.4444 32.4441 21.5393 31.417 20.8682 30.095C20.2173 28.7526 19.8919 27.2069 19.8919 25.4578ZM32.6442 25.4883C32.6442 24.1866 32.2781 23.1595 31.5459 22.407C30.8341 21.6544 29.9595 21.2782 28.9223 21.2782C27.885 21.2782 27.0003 21.6544 26.2681 22.407C25.5562 23.1392 25.2003 24.1561 25.2003 25.4578C25.2003 26.7594 25.5562 27.7967 26.2681 28.5696C27.0003 29.3221 27.885 29.6984 28.9223 29.6984C29.9595 29.6984 30.8341 29.3221 31.5459 28.5696C32.2781 27.8171 32.6442 26.79 32.6442 25.4883ZM51.1232 29.5763V34H48.469C46.5775 34 45.103 33.5424 44.0454 32.6271C42.9878 31.6916 42.459 30.1763 42.459 28.0815V21.3087H40.3844V16.9766H42.459V12.8275H47.6758V16.9766H51.0927V21.3087H47.6758V28.1425C47.6758 28.6509 47.7979 29.017 48.0419 29.2408C48.286 29.4645 48.6928 29.5763 49.2622 29.5763H51.1232ZM64.4933 16.7935C66.4459 16.7935 68.0119 17.4443 69.1916 18.746C70.3712 20.0274 70.961 21.7968 70.961 24.0544V34H65.7747V24.7561C65.7747 23.6171 65.4798 22.7324 64.8899 22.1019C64.3001 21.4714 63.5069 21.1561 62.5103 21.1561C61.5137 21.1561 60.7205 21.4714 60.1307 22.1019C59.5409 22.7324 59.246 23.6171 59.246 24.7561V34H54.0291V11.4241H59.246V19.2647C59.7748 18.5121 60.4968 17.9121 61.412 17.4647C62.3273 17.0172 63.3544 16.7935 64.4933 16.7935ZM82.3353 34.2441C80.6675 34.2441 79.1624 33.8881 77.8201 33.1763C76.4981 32.4644 75.4506 31.4475 74.6778 30.1255C73.9252 28.8035 73.549 27.2577 73.549 25.4883C73.549 23.7392 73.9354 22.2036 74.7083 20.8816C75.4811 19.5392 76.5387 18.5121 77.8811 17.8003C79.2234 17.0884 80.7285 16.7325 82.3963 16.7325C84.064 16.7325 85.5691 17.0884 86.9114 17.8003C88.2538 18.5121 89.3114 19.5392 90.0843 20.8816C90.8571 22.2036 91.2436 23.7392 91.2436 25.4883C91.2436 27.2374 90.847 28.7831 90.0538 30.1255C89.2809 31.4475 88.2131 32.4644 86.8504 33.1763C85.5081 33.8881 84.003 34.2441 82.3353 34.2441ZM82.3353 29.7289C83.3318 29.7289 84.1759 29.3628 84.8674 28.6306C85.5793 27.8984 85.9352 26.851 85.9352 25.4883C85.9352 24.1256 85.5894 23.0782 84.8979 22.346C84.2267 21.6138 83.3929 21.2477 82.3963 21.2477C81.3793 21.2477 80.5353 21.6138 79.8641 22.346C79.1929 23.0578 78.8573 24.1053 78.8573 25.4883C78.8573 26.851 79.1828 27.8984 79.8336 28.6306C80.5048 29.3628 81.3387 29.7289 82.3353 29.7289Z" fill="#150606"/>
<path d="M71.0192 29.3078V51.8837H65.8024V29.3078H71.0192ZM73.7626 43.3414C73.7626 41.5923 74.088 40.0567 74.7388 38.7347C75.41 37.4127 76.3151 36.3958 77.454 35.6839C78.593 34.9721 79.8642 34.6162 81.2675 34.6162C82.4675 34.6162 83.515 34.8602 84.4099 35.3484C85.3251 35.8365 86.0268 36.4771 86.5149 37.2704V34.8602H91.7318V51.8837H86.5149V49.4735C86.0064 50.2667 85.2946 50.9074 84.3793 51.3955C83.4844 51.8837 82.437 52.1277 81.237 52.1277C79.854 52.1277 78.593 51.7718 77.454 51.06C76.3151 50.3278 75.41 49.3007 74.7388 47.9786C74.088 46.6363 73.7626 45.0906 73.7626 43.3414ZM86.5149 43.3719C86.5149 42.0703 86.1488 41.0432 85.4166 40.2906C84.7048 39.5381 83.8302 39.1618 82.7929 39.1618C81.7557 39.1618 80.8709 39.5381 80.1387 40.2906C79.4269 41.0228 79.071 42.0398 79.071 43.3414C79.071 44.6431 79.4269 45.6804 80.1387 46.4533C80.8709 47.2058 81.7557 47.582 82.7929 47.582C83.8302 47.582 84.7048 47.2058 85.4166 46.4533C86.1488 45.7007 86.5149 44.6736 86.5149 43.3719ZM100.723 37.2704C101.211 36.4771 101.913 35.8365 102.828 35.3484C103.743 34.8602 104.791 34.6162 105.97 34.6162C107.374 34.6162 108.645 34.9721 109.784 35.6839C110.923 36.3958 111.818 37.4127 112.468 38.7347C113.14 40.0567 113.475 41.5923 113.475 43.3414C113.475 45.0906 113.14 46.6363 112.468 47.9786C111.818 49.3007 110.923 50.3278 109.784 51.06C108.645 51.7718 107.374 52.1277 105.97 52.1277C104.77 52.1277 103.723 51.8938 102.828 51.426C101.933 50.9379 101.231 50.2973 100.723 49.504V51.8837H95.5059V29.3078H100.723V37.2704ZM108.167 43.3414C108.167 42.0398 107.801 41.0228 107.068 40.2906C106.357 39.5381 105.472 39.1618 104.414 39.1618C103.377 39.1618 102.492 39.5381 101.76 40.2906C101.048 41.0432 100.692 42.0703 100.692 43.3719C100.692 44.6736 101.048 45.7007 101.76 46.4533C102.492 47.2058 103.377 47.582 104.414 47.582C105.452 47.582 106.336 47.2058 107.068 46.4533C107.801 45.6804 108.167 44.6431 108.167 43.3414Z" fill="#150606"/>
<path d="M8 42.5L27 42.5M32 42.5L39 42.5M58.5 38L58.5 52C57.6667 51 55.4 50 53 50L7.5 50C6 49.8333 2 49.5 2 45C2 41 5.33333 40.1667 7.5 40L53 40C54.1667 40 56.9 39.6 58.5 38Z" stroke="#4992E8" stroke-opacity="0.77"/>
</svg>
